<?xml version="1.0" encoding="UTF-8" standalone="no"?>
<!-- Created with Inkscape (http://www.inkscape.org/) -->

<svg
   xmlns:dc="http://purl.org/dc/elements/1.1/"
   xmlns:cc="http://creativecommons.org/ns#"
   xmlns:rdf="http://www.w3.org/1999/02/22-rdf-syntax-ns#"
   xmlns:svg="http://www.w3.org/2000/svg"
   xmlns="http://www.w3.org/2000/svg"
   xmlns:sodipodi="http://sodipodi.sourceforge.net/DTD/sodipodi-0.dtd"
   xmlns:inkscape="http://www.inkscape.org/namespaces/inkscape"
   width="512"
   height="512"
   id="svg2"
   sodipodi:version="0.32"
   inkscape:version="0.47 r22583"
   version="1.0"
   sodipodi:docname="JaNaG.svg"
   inkscape:output_extension="org.inkscape.output.svg.inkscape"
   inkscape:export-filename="/home/mkalus/Desktop/JaNaG.png"
   inkscape:export-xdpi="11.25"
   inkscape:export-ydpi="11.25">
  <defs
     id="defs4">
    <inkscape:perspective
       sodipodi:type="inkscape:persp3d"
       inkscape:vp_x="0 : 256 : 1"
       inkscape:vp_y="0 : 1000 : 0"
       inkscape:vp_z="512 : 256 : 1"
       inkscape:persp3d-origin="256 : 170.66667 : 1"
       id="perspective2464" />
  </defs>
  <sodipodi:namedview
     id="base"
     pagecolor="#ffffff"
     bordercolor="#666666"
     borderopacity="1.0"
     gridtolerance="10000"
     guidetolerance="10"
     objecttolerance="10"
     inkscape:pageopacity="0.0"
     inkscape:pageshadow="2"
     inkscape:zoom="1"
     inkscape:cx="256"
     inkscape:cy="284.28729"
     inkscape:document-units="px"
     inkscape:current-layer="layer1"
     width="512px"
     height="512px"
     inkscape:window-width="1399"
     inkscape:window-height="977"
     inkscape:window-x="1"
     inkscape:window-y="48"
     showgrid="false"
     inkscape:window-maximized="0" />
  <metadata
     id="metadata7">
    <rdf:RDF>
      <cc:Work
         rdf:about="">
        <dc:format>image/svg+xml</dc:format>
        <dc:type
           rdf:resource="http://purl.org/dc/dcmitype/StillImage" />
      </cc:Work>
    </rdf:RDF>
  </metadata>
  <g
     inkscape:label="Layer 1"
     inkscape:groupmode="layer"
     id="layer1"
     transform="translate(0,-87.219299)">
    <rect
       style="fill:#ccff00;fill-opacity:1;stroke:none"
       id="rect2817"
       width="512"
       height="512"
       x="0"
       y="87.219299"
       rx="36.85318"
       ry="36.853184" />
    <path
       style="fill:#020202"
       d="M 385.54813,559.54205 C 373.28352,547.15556 362.308,533.34601 350.70174,520.29701 C 341.66933,520.68171 330.06589,513.98409 322.41213,520.43504 C 309.39433,531.00495 297.06535,542.63694 283.39603,552.28297 C 275.1363,544.54956 254.57942,542.47612 254.70524,529.99817 C 257.74426,514.18212 260.29171,498.2441 263.51476,482.48069 C 257.4075,470.57813 250.03271,457.36604 234.72989,458.01346 C 222.14158,454.75802 207.7665,454.46168 196.37513,448.89281 C 197.48994,436.96816 184.15512,418.00408 198.64868,411.96205 C 211.98656,403.03182 230.17701,398.7011 240.50196,386.83369 C 249.08951,371.99175 244.41411,357.11545 235.08817,343.85845 C 230.50012,331.74841 214.43591,317.63113 231.21024,308.13052 C 238.68806,298.14813 247.99809,288.21862 260.10306,298.82029 C 276.26124,303.28401 292.39784,320.19789 308.89157,309.1843 C 327.01452,303.89226 327.02077,279.6875 336.6304,265.72579 C 339.83382,248.20986 359.68951,259.4891 371.66502,257.88655 C 382.75886,264.33957 380.40457,283.85789 386.05961,295.30978 C 386.63132,311.34253 403.9506,324.45166 419.19941,321.50432 C 434.1619,318.22707 449.56801,312.2427 464.41775,311.09112 C 469.74645,321.04151 487.45601,333.22941 479.67127,344.61239 C 470.40855,357.72729 460.51363,370.40214 451.53941,383.70927 C 454.19467,395.54832 452.61376,409.94803 466.25637,415.43646 C 476.04039,425.12043 492.97379,431.17232 497.86005,443.38149 C 491.93305,454.35601 494.64151,477.6967 476.59818,473.61047 C 462.38395,474.79263 448.12893,475.43264 433.86144,475.83542 C 426.33933,484.62402 413.99914,491.86928 417.40441,505.16675 C 414.94557,519.29748 422.97729,538.69656 414.66913,549.59621 C 405.07888,552.5571 395.12143,559.01717 385.54813,559.54205 z M 352.25355,454.27985 C 377.13292,451.31168 395.98428,424.61909 388.84087,400.2535 C 383.633,374.93133 353.11371,359.5677 329.65575,370.31267 C 306.37031,379.27057 295.27887,409.69457 307.91203,431.30972 C 316.18422,447.12723 334.56193,456.64428 352.25355,454.27985 z"
       id="path2248" />
    <path
       style="font-size:255.19537354px;font-style:normal;font-weight:normal;fill:#005500;fill-opacity:1;stroke:none;stroke-width:1px;stroke-linecap:butt;stroke-linejoin:miter;stroke-opacity:1;font-family:Bitstream Vera Sans"
       d="M 164.96592,316.73341 C 165.77431,316.92469 166.17101,319.26629 166.37462,320.52358 C 166.57823,321.78087 166.44938,323.99855 166.22007,324.96852 C 163.00915,338.55026 147.34582,358.40693 119.23004,384.53859 L 131.04037,449.94328 C 131.6737,453.76356 131.79925,456.48213 131.417,458.09897 C 130.28937,462.86871 127.5428,464.73754 123.17728,463.70546 C 120.67116,463.11298 118.10923,461.31225 115.4915,458.30325 L 72.519487,409.34731 C 54.035525,413.5136 42.772445,415.11891 38.730213,414.16323 C 33.313835,412.88276 31.475216,408.56414 33.21435,401.20738 C 34.284741,396.68025 35.905447,393.43555 38.076473,391.47328 C 39.890477,389.93889 43.116943,388.56764 47.755881,387.35953 C 52.618397,386.28977 59.819454,384.53508 69.359073,382.09544 C 83.271797,378.12897 98.656003,370.28493 115.51174,358.56329 C 130.31106,348.31901 143.49648,337.13822 155.06803,325.0209 C 160.61564,319.24759 163.91493,316.4851 164.96592,316.73341 M 101.80914,395.40096 C 96.915754,398.7683 91.354289,401.89228 85.124729,404.77289 L 111.32109,434.78191 L 101.80914,395.40096 M 238.75375,223.73938 C 243.94234,228.88903 243.69855,234.32346 238.02239,240.04271 L 182.4597,296.02716 C 181.58192,296.9116 180.3209,297.41566 178.67663,297.53935 C 177.03236,297.66306 175.76801,297.28602 174.88358,296.40825 L 106.34022,228.38125 C 102.68464,224.75323 103.54864,220.22692 108.93221,214.80234 L 132.80749,190.74583 C 145.73997,177.71534 155.28636,170.21918 161.4467,168.25731 C 168.07655,166.17645 174.54593,168.26665 180.85487,174.52793 C 188.34303,181.95982 186.46481,197.88565 175.22018,222.30549 C 174.52107,223.83547 173.90908,225.10071 173.38419,226.10121 L 231.34119,220.77163 C 234.04228,220.52653 236.51313,221.51578 238.75375,223.73938 M 159.98132,200.15909 C 158.8021,198.98884 157.59427,198.02418 156.35782,197.26512 C 153.76707,195.63028 149.80335,195.96834 144.46665,198.2793 C 139.83356,200.23537 135.99554,202.74636 132.95257,205.81229 L 131.98702,206.78516 C 129.29525,209.49751 128.86325,211.76066 130.69103,213.57462 L 154.65909,237.36213 C 154.71808,237.42071 154.98163,237.21412 155.44975,236.74236 C 158.49269,233.6764 160.81941,227.61731 162.42991,218.56507 C 164.04044,209.51299 163.22425,203.37767 159.98132,200.15909 M 216.19645,246.82168 C 216.19641,246.82174 216.16715,246.85122 216.10867,246.91013 L 169.07531,251.66974 L 188.35589,270.80507 C 189.77097,272.20953 191.18072,272.2042 192.58517,270.78908 L 215.67046,247.52856 C 216.139,247.1744 216.31434,246.93878 216.19645,246.82168 M 381.00573,173.15011 L 381.08832,173.64165 C 381.1295,173.88748 381.12983,174.14013 381.08933,174.3996 C 377.85134,204.25786 359.02862,222.07782 324.62111,227.85952 C 307.33534,230.76416 291.71611,228.79789 277.76337,221.96072 C 262.68986,214.46955 253.83158,202.85937 251.18851,187.13014 C 248.36648,170.33602 251.99907,154.85796 262.08628,140.69593 C 272.52804,126.13757 286.80138,117.33719 304.90636,114.29479 C 330.22046,110.04122 349.43524,114.85698 362.55077,128.74208 C 362.72894,129.30188 362.84562,129.74557 362.90079,130.07315 C 363.176,131.71172 361.31445,133.66713 357.31612,135.93939 C 354.16367,137.73274 351.30427,139.01346 348.73789,139.78157 L 347.42645,139.49652 C 347.11177,139.1283 346.65363,138.65775 346.05206,138.08487 C 335.11255,127.62473 322.26979,123.63355 307.52374,126.11132 C 295.31719,128.16256 286.47626,134.70232 281.00092,145.7306 C 276.30212,155.36503 274.96453,166.20353 276.98815,178.24612 C 279.0668,190.61652 284.35807,200.29901 292.86199,207.29362 C 301.98126,214.94299 313.05378,217.67327 326.07957,215.48446 C 345.74097,212.18064 356.98905,203.17262 359.82383,188.46036 C 360.62381,184.19841 360.74853,180.42895 360.19799,177.15198 C 359.53712,173.21974 361.13192,170.9301 364.9824,170.28303 C 366.04729,170.10414 367.6792,170.04051 369.87813,170.09214 C 372.145,170.04821 373.81099,169.93674 374.8761,169.75772 C 378.56251,169.13831 380.60571,170.26911 381.00573,173.15011"
       id="text2469"
       sodipodi:nodetypes="czsccssccsscccccccccccccscccccscccccccccccsscccccccccccscscscsscccscscscsscsc" />
  </g>
</svg>
